<svg xmlns="http://www.w3.org/2000/svg" width="24" height="24" viewBox="0 0 24 24" fill="currentColor" role="img" aria-label="action-edit"><path d="M19.65 7.84L16.16 4.35C16.06 4.25 15.93 4.17 15.8 4.11C15.67 4.06 15.53 4.03 15.38 4.03C15.24 4.03 15.1 4.06 14.97 4.11C14.83 4.17 14.71 4.25 14.61 4.35L4.98 13.99C4.87 14.09 4.79 14.21 4.74 14.34C4.68 14.47 4.66 14.61 4.66 14.76V18.25C4.66 18.54 4.77 18.82 4.98 19.02C5.18 19.23 5.46 19.34 5.75 19.34H9.24C9.39 19.34 9.53 19.32 9.66 19.26C9.79 19.21 9.91 19.13 10.01 19.02L19.65 9.39C19.75 9.29 19.83 9.17 19.89 9.03C19.94 8.9 19.97 8.76 19.97 8.62C19.97 8.47 19.94 8.33 19.89 8.2C19.83 8.06 19.75 7.94 19.65 7.84ZM9.35 18.36C9.32 18.39 9.28 18.41 9.24 18.41H5.75C5.71 18.41 5.67 18.39 5.64 18.36C5.61 18.33 5.59 18.29 5.59 18.25V14.76C5.59 14.72 5.61 14.68 5.64 14.65L12.63 7.66L16.34 11.37L9.35 18.36ZM18.99 8.73L17 10.71L13.29 7L15.27 5.01C15.29 5 15.31 4.99 15.32 4.98C15.34 4.97 15.36 4.97 15.38 4.97C15.4 4.97 15.42 4.97 15.44 4.98C15.46 4.99 15.48 5 15.49 5.01L18.99 8.51C19 8.52 19.01 8.54 19.02 8.56C19.03 8.58 19.03 8.6 19.03 8.62C19.03 8.64 19.03 8.66 19.02 8.68C19.01 8.69 19 8.71 18.99 8.73Z"/></svg>