<svg xmlns="http://www.w3.org/2000/svg" width="24" height="24" viewBox="0 0 24 24" fill="currentColor" role="img" aria-label="content-chart"><path d="M19.97 18.25C19.97 18.37 19.92 18.49 19.83 18.58C19.74 18.67 19.62 18.72 19.5 18.72H4.5C4.38 18.72 4.26 18.67 4.17 18.58C4.08 18.49 4.03 18.37 4.03 18.25V5.75C4.03 5.63 4.08 5.51 4.17 5.42C4.26 5.33 4.38 5.28 4.5 5.28C4.62 5.28 4.74 5.33 4.83 5.42C4.92 5.51 4.97 5.63 4.97 5.75V13.47L9.19 9.77C9.27 9.7 9.38 9.66 9.48 9.66C9.59 9.65 9.7 9.69 9.78 9.75L14.48 13.27L19.19 9.15C19.29 9.07 19.4 9.04 19.52 9.05C19.64 9.06 19.75 9.12 19.83 9.21C19.91 9.3 19.95 9.41 19.95 9.53C19.94 9.65 19.89 9.77 19.81 9.85L14.81 14.23C14.73 14.3 14.62 14.34 14.52 14.34C14.41 14.34 14.3 14.31 14.22 14.25L9.52 10.73L4.97 14.71V17.78H19.5C19.62 17.78 19.74 17.83 19.83 17.92C19.92 18.01 19.97 18.13 19.97 18.25Z"/></svg>