<svg xmlns="http://www.w3.org/2000/svg" width="24" height="24" viewBox="0 0 24 24" fill="currentColor" role="img" aria-label="content-cloud"><path d="M14.5 5.28C13.23 5.28 11.99 5.64 10.92 6.32C9.85 6.99 8.99 7.96 8.44 9.1C7.78 8.99 7.1 9.01 6.45 9.18C5.8 9.34 5.19 9.63 4.66 10.04C4.13 10.46 3.69 10.97 3.37 11.56C3.05 12.15 2.86 12.8 2.8 13.47C2.74 14.13 2.83 14.81 3.04 15.44C3.26 16.08 3.61 16.66 4.06 17.15C4.51 17.65 5.06 18.04 5.68 18.31C6.29 18.58 6.95 18.72 7.63 18.72H14.5C16.28 18.72 17.99 18.01 19.25 16.75C20.51 15.49 21.22 13.78 21.22 12C21.22 10.22 20.51 8.51 19.25 7.25C17.99 5.99 16.28 5.28 14.5 5.28ZM14.5 17.78H7.63C6.59 17.78 5.6 17.37 4.86 16.64C4.13 15.9 3.72 14.91 3.72 13.88C3.72 12.84 4.13 11.85 4.86 11.11C5.6 10.38 6.59 9.97 7.63 9.97C7.78 9.97 7.93 9.98 8.09 10C7.88 10.64 7.78 11.32 7.78 12C7.78 12.12 7.83 12.24 7.92 12.33C8.01 12.42 8.13 12.47 8.25 12.47C8.37 12.47 8.49 12.42 8.58 12.33C8.67 12.24 8.72 12.12 8.72 12C8.72 10.86 9.06 9.74 9.69 8.79C10.33 7.84 11.23 7.1 12.29 6.66C13.34 6.22 14.51 6.11 15.63 6.33C16.75 6.55 17.78 7.1 18.59 7.91C19.4 8.72 19.95 9.75 20.17 10.87C20.39 11.99 20.28 13.16 19.84 14.21C19.4 15.27 18.66 16.17 17.71 16.81C16.76 17.44 15.64 17.78 14.5 17.78Z"/></svg>