<svg xmlns="http://www.w3.org/2000/svg" width="24" height="24" viewBox="0 0 24 24" fill="currentColor" role="img" aria-label="utility-file-text"><path d="M19.9,7.85l-5.25-5.25A0.56,0.56,0,0,0,14.25,2.44H5.25A1.31,1.31,0,0,0,3.94,3.75V20.25a1.31,1.31,0,0,0,1.31,1.31H18.75a1.31,1.31,0,0,0,1.31-1.31V8.25A0.56,0.56,0,0,0,19.9,7.85ZM14.81,4.36L18.14,7.69H14.81ZM18.75,20.44H5.25a0.19,0.19,0,0,1-0.19-0.19V3.75a0.19,0.19,0,0,1,0.19-0.19h8.44V8.25a0.56,0.56,0,0,0,0.56,0.56h4.69V20.25A0.19,0.19,0,0,1,18.75,20.44Zm-3.19-7.69a0.56,0.56,0,0,1-0.56,0.56H9a0.56,0.56,0,0,1,0-1.12h6A0.56,0.56,0,0,1,15.56,12.75Zm0,3a0.56,0.56,0,0,1-0.56,0.56H9a0.56,0.56,0,0,1,0-1.12h6A0.56,0.56,0,0,1,15.56,15.75Z"/></svg>